<?xml version="1.0" encoding="utf-8"?>
<!-- Generator: Adobe Illustrator 27.4.1, SVG Export Plug-In . SVG Version: 6.00 Build 0)  -->
<svg version="1.1" id="Camada_1" xmlns="http://www.w3.org/2000/svg" xmlns:xlink="http://www.w3.org/1999/xlink" x="0px" y="0px"
	 viewBox="0 0 2772.9 595.3" style="enable-background:new 0 0 2772.9 595.3;" xml:space="preserve">
<style type="text/css">
	.st0{fill:#152132;}
	.st1{fill:#F6A321;}
	.st2{fill-rule:evenodd;clip-rule:evenodd;fill:#F6A321;}
</style>
<path class="st0" d="M728.2,365.9l25.6-11.9c7.2,26.7,29.6,45.5,60.3,45.5c27.1,0,50.5-14.8,50.5-44c0-26.4-18.8-37.9-48.7-49.8
	l-17-6.5c-37.5-15.2-60.3-36.1-60.3-69.3c0-39.7,32.1-65,73.6-65c42.2,0,67.1,25.6,77.2,53.4l-23.8,12.3
	c-10.1-23.1-26.7-37.2-52.7-37.2c-24.5,0-43.3,13.7-43.3,36.8c0,18,10.8,32.1,41.1,44l17.3,6.9c41.9,16.6,68.2,35.4,68.2,74.7
	c0,47.3-39.3,72.6-82.3,72.6C770.8,428.3,736.9,402.7,728.2,365.9"/>
<path class="st0" d="M1093.5,365.5H972.2l-23.1,59.2h-33.6l101.8-256.3h31l101.8,256.3h-33.6L1093.5,365.5z M1082.3,336.6
	l-49.5-128.1l-49.5,128.1H1082.3z"/>
<polygon class="st0" points="1217.3,196.6 1217.3,282.5 1314.8,282.5 1314.8,309.2 1217.3,309.2 1217.3,424.7 1186.3,424.7 
	1186.3,168.4 1324.1,168.4 1324.1,196.6 "/>
<polygon class="st0" points="1510,395.8 1510,424.7 1369.3,424.7 1369.3,168.4 1506.8,168.4 1506.8,197.3 1400.3,197.3 
	1400.3,281.8 1490.9,281.8 1490.9,310.3 1400.3,310.3 1400.3,395.8 "/>
<path class="st0" d="M1667.4,428.3c-70.7,0-129.9-53.4-129.9-131.8c0-78.3,59.2-131.8,130.7-131.8c31.4,0,72.2,10.5,100,50.2
	l-22.4,16.6c-21.3-28.5-51.6-36.8-76.9-36.8c-55.2,0-99.6,40.1-99.6,101.8s44.8,102.9,99.6,102.9c42.2,0,80.1-24.2,86.3-78.7h-72.6
	v-26.4h102.9C1792,378.1,1735.3,428.3,1667.4,428.3"/>
<path class="st0" d="M1825.9,296.6c0-78.7,60.6-131.8,130.3-131.8c69.3,0,129.9,53.1,129.9,131.8s-60.6,131.8-129.9,131.8
	C1886.5,428.3,1825.9,375.3,1825.9,296.6 M2054.4,296.6c0-62.1-46.6-101.8-98.2-101.8c-52,0-98.5,39.7-98.5,101.8
	c0,62.1,46.6,101.8,98.5,101.8C2007.8,398.4,2054.4,358.7,2054.4,296.6"/>
<polygon class="st0" points="2276.4,395.8 2276.4,424.7 2133.1,424.7 2133.1,168.4 2164.1,168.4 2164.1,395.8 "/>
<path class="st0" d="M2319.7,168.4h76.9c75.8,0,126,52,126,128.1s-50.2,128.1-126,128.1h-76.9V168.4z M2395.5,395.1
	c61,0,94.9-39.3,94.9-98.5c0-59.2-33.9-98.5-94.9-98.5h-44.8v197.1H2395.5z"/>
<path class="st1" d="M2581.4,183.1c4.4,0,7.7,0.4,9.8,1.3c3.7,1.5,5.5,4.6,5.5,9c0,3.2-1.2,5.5-3.5,7c-1.2,0.8-3,1.4-5.2,1.7
	c2.8,0.4,4.9,1.6,6.2,3.5c1.3,1.9,2,3.7,2,5.5v2.6c0,0.8,0,1.7,0.1,2.7c0.1,0.9,0.2,1.6,0.3,1.9l0.2,0.4h-5.9c0-0.1-0.1-0.2-0.1-0.4
	c0-0.1-0.1-0.3-0.1-0.4l-0.1-1.2v-2.8c0-4.1-1.1-6.9-3.4-8.2c-1.3-0.8-3.7-1.2-7-1.2h-5v14.1h-6.3v-35.7H2581.4z M2590.5,194
	c0-2.6-0.8-4.3-2.4-5.2c-1.6-0.9-4.1-1.3-7.6-1.3h-5.4v12.9h5.7c2.7,0,4.7-0.3,6-0.8C2589.3,198.6,2590.5,196.7,2590.5,194
	 M2614.6,201.1c0,9-3.2,16.7-9.5,23.1c-6.4,6.4-14,9.6-23.1,9.6c-9,0-16.7-3.2-23-9.6c-6.3-6.4-9.4-14-9.4-23.1c0-9,3.2-16.6,9.5-23
	c6.3-6.3,14-9.5,22.9-9.5c9,0,16.7,3.2,23.1,9.5C2611.4,184.4,2614.6,192.1,2614.6,201.1 M2582,173c-7.7,0-14.3,2.7-19.8,8.2
	c-5.4,5.5-8.2,12.1-8.2,19.8c0,7.8,2.7,14.4,8.1,19.9c5.4,5.5,12,8.2,19.8,8.2c7.8,0,14.4-2.7,19.8-8.2c5.4-5.5,8.2-12.1,8.2-19.9
	c0-7.7-2.7-14.3-8.2-19.8C2596.4,175.7,2589.7,173,2582,173"/>
<path class="st2" d="M191.8,371c-0.6,0-1.2-0.2-1.7-0.6c-1.4-1-1.7-3-0.8-4.5l9.3-14c0.6-0.9,1.5-1.4,2.5-1.4H284l13-21.3
	c0.6-0.9,1.5-1.4,2.5-1.4h247.9c1.7,0,3,1.5,3,3.2c0,0.6-0.2,1.3-0.5,1.8l-24.3,36.7c-0.6,0.9-1.5,1.4-2.5,1.4
	c-56.3,7.8-95.9,11.7-118.6,11.7C353.6,382.7,282.7,378.8,191.8,371"/>
<path class="st2" d="M248.1,277l-24.7,37.3c-0.9,1.3-0.5,3.1,0.8,4c0.5,0.3,1,0.5,1.6,0.5h331.6c1,0,1.8-0.5,2.4-1.3l25.3-37.3
	c0.9-1.3,0.5-3.1-0.8-4c-0.5-0.3-1-0.5-1.6-0.5H250.5C249.5,275.7,248.6,276.2,248.1,277"/>
<path class="st2" d="M620.3,218.2c0.6,0,1.2,0.2,1.7,0.6c1.4,1,1.7,3,0.8,4.5l-13.1,19.5c-0.6,0.9-1.5,1.4-2.5,1.4h-82.7
	c-43.2,15-65.1,22.5-65.7,22.5H261.1c-1.7,0-3-1.4-3-3.2c0-0.6,0.2-1.3,0.5-1.8l24.4-36.5c0.6-0.9,1.5-1.4,2.5-1.4
	c51.8-7.2,91.4-10.8,118.7-10.8C450.5,213,522.6,214.7,620.3,218.2"/>
</svg>
